<?xml version="1.0" standalone="no"?>
<!DOCTYPE svg PUBLIC "-//W3C//DTD SVG 20010904//EN"
 "http://www.w3.org/TR/2001/REC-SVG-20010904/DTD/svg10.dtd">
<svg version="1.0" xmlns="http://www.w3.org/2000/svg"
 width="768.000000pt" height="591.000000pt" viewBox="0 0 768.000000 591.000000"
 preserveAspectRatio="xMidYMid meet">

<g transform="translate(0.000000,591.000000) scale(0.100000,-0.100000)"
fill="#000000" stroke="none">
<path d="M0 2955 l0 -2955 3840 0 3840 0 0 2955 0 2955 -3840 0 -3840 0 0
-2955z m3964 1625 c6 0 18 -6 24 -12 7 -7 29 -11 50 -10 25 2 33 0 23 -6 -8
-6 -10 -15 -5 -23 6 -12 5 -12 -9 0 -10 8 -17 9 -17 3 0 -6 -3 -18 -7 -28 -4
-12 -3 -15 5 -10 8 4 10 2 6 -7 -4 -10 4 -16 24 -19 24 -3 28 -1 24 14 -2 10
-9 15 -16 11 -7 -4 -7 -2 1 7 6 7 23 13 37 13 21 0 26 4 26 24 0 18 4 24 15
19 8 -3 15 -1 15 5 0 6 5 7 10 4 7 -4 3 -14 -10 -25 -24 -20 -26 -32 -5 -24
10 4 15 0 15 -12 0 -11 3 -15 8 -9 10 15 62 13 62 -2 0 -7 7 -13 15 -13 8 0
15 -6 15 -12 0 -8 7 -5 15 6 8 11 15 18 16 15 0 -2 2 -13 4 -24 2 -11 -1 -22
-7 -26 -7 -4 -7 -9 1 -13 6 -4 11 -2 11 3 0 6 7 11 16 11 10 0 14 -6 11 -15
-8 -19 13 -31 24 -14 7 12 9 12 9 0 0 -9 8 -11 26 -7 23 6 25 4 19 -16 -5 -18
-4 -20 4 -8 8 12 13 12 23 2 20 -20 35 -14 33 13 -2 14 1 25 6 25 12 0 11 -37
-1 -61 -9 -16 -7 -19 10 -19 11 0 20 -4 20 -10 0 -5 9 -10 19 -10 10 0 22 -7
25 -16 4 -10 12 -14 23 -10 9 4 24 -1 33 -9 10 -9 24 -15 31 -13 9 2 14 -7 14
-27 0 -44 12 -58 37 -44 18 10 19 8 13 -11 -6 -18 -4 -21 6 -14 8 5 22 7 32 6
9 -2 17 1 17 6 0 5 6 9 14 9 8 0 12 -6 9 -13 -5 -14 27 -68 35 -59 3 3 12 -4
20 -16 13 -19 15 -19 28 -2 13 16 14 16 8 -9 -4 -18 -2 -28 5 -28 10 0 15 14
12 33 -1 5 3 6 8 3 11 -7 2 -46 -10 -46 -5 0 -9 -5 -9 -11 0 -6 6 -9 13 -6 6
2 17 -3 24 -12 8 -11 12 -12 13 -3 0 6 4 12 9 12 5 0 7 -9 4 -20 -3 -13 0 -20
8 -20 8 0 20 -9 27 -20 7 -12 18 -17 29 -13 12 5 15 2 10 -9 -3 -10 0 -19 9
-22 8 -3 14 -10 14 -16 0 -6 -4 -9 -9 -6 -5 4 -7 -2 -4 -13 3 -12 11 -17 22
-14 9 2 29 -7 45 -22 l28 -26 -24 -20 -23 -20 28 5 c15 4 27 2 27 -4 0 -5 8
-10 18 -11 10 0 12 -3 5 -6 -20 -8 -15 -40 12 -83 18 -29 21 -40 11 -40 -7 0
-19 6 -26 14 -6 8 -18 12 -25 10 -10 -4 -12 0 -8 15 3 13 1 21 -6 21 -7 0 -10
4 -7 8 3 5 -4 16 -15 25 -10 9 -19 23 -19 30 0 7 -18 28 -40 47 -21 18 -37 37
-34 41 3 5 -1 9 -9 9 -8 0 -22 11 -31 25 -9 14 -23 25 -30 25 -8 0 -27 15 -42
33 -15 17 -37 37 -49 42 -13 6 -43 27 -67 47 -23 21 -68 54 -98 75 -30 20 -60
43 -66 51 -6 9 -16 12 -23 8 -8 -5 -14 0 -18 13 -3 12 -10 21 -15 21 -5 0 -6
-4 -3 -10 3 -6 -1 -7 -9 -4 -9 3 -16 12 -16 20 0 8 -5 14 -11 14 -5 0 -7 -5
-4 -11 4 -5 -10 -2 -32 7 -102 46 -269 97 -373 115 -118 20 -430 32 -430 16 0
-4 -19 -7 -42 -7 -24 1 -59 0 -78 -2 -31 -2 -35 0 -39 22 -1 14 -7 28 -12 31
-5 3 -2 14 6 25 14 18 14 18 8 -3 -7 -28 8 -30 27 -3 17 23 32 27 24 5 -11
-27 19 -16 51 19 22 24 35 32 45 26 9 -5 17 -5 21 1 3 6 19 -3 37 -20 32 -33
47 -40 39 -18 -3 7 4 19 14 25 12 8 19 8 19 2 0 -5 -6 -10 -12 -10 -9 0 -9 -3
1 -9 12 -8 13 -15 4 -34 -11 -25 -8 -37 9 -37 5 0 8 6 7 13 -4 31 1 40 15 28
11 -10 19 -7 35 10 15 16 18 25 10 30 -8 5 -5 11 10 20 11 8 21 17 21 22 0 4
-4 5 -10 2 -5 -3 -10 -1 -10 4 0 6 6 12 13 12 6 1 18 2 25 3 7 0 17 8 22 16 8
12 10 12 10 -5 0 -11 5 -27 11 -35 8 -12 10 -9 6 13 -3 18 0 27 9 27 21 0 17
18 -6 30 -11 6 -19 18 -19 28 1 16 2 16 6 0 2 -10 10 -18 17 -18z m54 5 c-3
-3 -9 2 -12 12 -6 14 -5 15 5 6 7 -7 10 -15 7 -18z m82 -5 c0 -11 -2 -20 -4
-20 -2 0 -6 9 -9 20 -3 11 -1 20 4 20 5 0 9 -9 9 -20z m160 -30 c0 -5 -2 -10
-4 -10 -3 0 -8 5 -11 10 -3 6 -1 10 4 10 6 0 11 -4 11 -10z m1 -37 c13 -17 13
-17 -6 -3 -11 8 -22 16 -24 17 -2 2 0 3 6 3 6 0 17 -8 24 -17z m-421 -33 c0
-5 -2 -10 -4 -10 -3 0 -8 5 -11 10 -3 6 -1 10 4 10 6 0 11 -4 11 -10z m-330
-10 c0 -5 -2 -10 -4 -10 -3 0 -8 5 -11 10 -3 6 -1 10 4 10 6 0 11 -4 11 -10z
m-80 -10 c0 -5 -5 -10 -11 -10 -5 0 -7 5 -4 10 3 6 8 10 11 10 2 0 4 -4 4 -10z
m1014 -40 c-6 -6 -10 -3 -10 10 0 13 4 16 10 10 7 -7 7 -13 0 -20z m-969 0
c-3 -5 -17 -10 -31 -10 -14 0 -22 4 -19 10 3 6 17 10 31 10 14 0 22 -4 19 -10z
m20 -46 c2 -23 -13 -38 -38 -40 -18 -2 -18 -1 0 19 17 19 17 20 1 14 -21 -7
-23 -1 -6 17 18 19 41 13 43 -10z m-229 -31 c-7 -7 -26 7 -26 19 0 6 6 6 15
-2 9 -7 13 -15 11 -17z m134 -20 c0 -9 -3 -13 -7 -10 -3 4 -12 2 -20 -4 -14
-13 -16 -9 -7 15 8 21 34 21 34 -1z m-90 -7 c0 -8 -4 -18 -10 -21 -5 -3 -10 3
-10 14 0 12 5 21 10 21 6 0 10 -6 10 -14z m40 0 c0 -3 -4 -8 -10 -11 -5 -3
-10 -1 -10 4 0 6 5 11 10 11 6 0 10 -2 10 -4z m-79 -56 c-28 -24 -38 -25 -38
-5 0 8 3 12 7 10 3 -2 12 0 20 6 27 16 35 9 11 -11z m-63 -9 c16 -10 10 -15
-73 -61 -33 -19 -92 -55 -132 -81 -50 -34 -73 -44 -76 -35 -3 7 -1 19 4 27 8
12 10 12 19 -1 9 -13 11 -13 20 0 5 8 10 20 10 27 0 7 7 10 17 6 11 -4 14 -3
9 5 -4 7 -1 12 6 13 10 0 10 2 1 6 -23 9 -14 23 12 19 14 -3 25 -1 25 3 0 4
23 15 50 25 28 10 50 23 50 28 0 6 7 8 15 4 9 -3 15 0 15 9 0 17 9 19 28 6z
m1562 -11 c0 -5 -4 -10 -10 -10 -5 0 -10 5 -10 10 0 6 5 10 10 10 6 0 10 -4
10 -10z m-1856 -167 c7 -17 -2 -40 -19 -47 -10 -3 -13 4 -12 28 2 32 22 45 31
19z m-204 -43 c0 -5 -4 -10 -10 -10 -5 0 -10 5 -10 10 0 6 5 10 10 10 6 0 10
-4 10 -10z m70 0 c0 -5 -4 -10 -10 -10 -5 0 -10 5 -10 10 0 6 5 10 10 10 6 0
10 -4 10 -10z m90 -4 c0 -11 -19 -15 -25 -6 -3 5 1 10 9 10 9 0 16 -2 16 -4z
m-65 -74 c-8 -8 -25 10 -19 20 4 6 9 5 15 -3 4 -7 6 -15 4 -17z m2251 -40
c-18 -16 -18 -16 -6 6 6 13 14 21 18 18 3 -4 -2 -14 -12 -24z m34 -12 c0 -5
-2 -10 -4 -10 -3 0 -8 5 -11 10 -3 6 -1 10 4 10 6 0 11 -4 11 -10z m-2496 -15
c11 -8 17 -17 14 -20 -7 -8 -58 16 -58 27 0 13 23 9 44 -7z m126 -15 c-8 -5
-11 -12 -7 -16 7 -8 -10 -34 -23 -34 -5 0 -7 8 -5 18 2 9 4 22 4 27 1 6 11 12
23 12 17 2 19 0 8 -7z m-50 -10 c0 -5 -5 -10 -11 -10 -5 0 -7 5 -4 10 3 6 8
10 11 10 2 0 4 -4 4 -10z m-32 -112 c-50 -70 -54 -74 -61 -47 -4 15 -2 19 9
15 11 -4 14 0 12 12 -1 9 1 23 5 30 5 8 2 12 -8 12 -9 0 -14 4 -11 9 3 5 15 7
26 4 22 -6 53 14 44 28 -3 5 2 6 10 3 13 -5 8 -17 -26 -66z m2 52 c0 -5 -4
-10 -10 -10 -5 0 -10 5 -10 10 0 6 5 10 10 10 6 0 10 -4 10 -10z m-130 -65 c0
-8 -4 -15 -10 -15 -5 0 -10 7 -10 15 0 8 5 15 10 15 6 0 10 -7 10 -15z m2693
-7 c-21 -23 -33 -23 -33 1 0 14 7 18 24 17 23 -1 23 -2 9 -18z m12 -38 c3 -5
1 -10 -4 -10 -6 0 -11 5 -11 10 0 6 2 10 4 10 3 0 8 -4 11 -10z m62 -46 c-9
-9 -47 30 -47 48 0 7 12 0 27 -14 15 -15 24 -31 20 -34z m-2697 17 c0 -2 -13
-25 -28 -50 -16 -25 -37 -65 -47 -88 -10 -24 -23 -43 -28 -43 -4 0 -6 -4 -3
-9 3 -5 -5 -35 -18 -67 -20 -49 -28 -59 -49 -59 -16 -1 -23 4 -20 12 3 7 8 11
12 8 9 -5 44 35 37 42 -3 3 -11 1 -19 -5 -10 -8 -13 -7 -13 7 0 13 6 17 20 13
14 -4 17 -2 10 9 -4 8 -9 20 -11 28 -1 8 -7 17 -13 21 -9 6 -9 9 0 15 7 4 13
-1 17 -13 8 -31 31 -35 31 -6 0 13 -4 27 -9 30 -15 9 -10 32 7 30 9 0 19 5 21
12 3 6 -2 12 -11 12 -20 0 -21 16 -2 27 8 4 15 17 17 27 5 27 25 31 32 6 3
-11 11 -20 18 -20 9 0 10 3 2 11 -15 15 6 55 29 55 10 0 18 -2 18 -5z m2634
-24 c17 -16 9 -37 -15 -37 -13 0 -17 -5 -12 -17 6 -16 5 -16 -11 -4 -13 11
-14 16 -4 23 11 6 10 10 -1 17 -11 7 -10 11 5 20 24 13 23 13 38 -2z m-2768
-43 c-4 -9 -9 -15 -11 -12 -3 3 -3 13 1 22 4 9 9 15 11 12 3 -3 3 -13 -1 -22z
m-66 -10 c0 -8 -5 -12 -10 -9 -6 4 -8 11 -5 16 9 14 15 11 15 -7z m2857 -19
c8 -9 12 -22 9 -30 -3 -9 1 -15 10 -15 8 0 13 -4 9 -10 -3 -5 -12 -7 -20 -3
-8 3 -15 0 -15 -7 0 -6 -4 -9 -9 -5 -5 3 -8 17 -5 30 2 14 0 25 -5 25 -6 0 -8
7 -5 15 8 19 12 19 31 0z m-2807 -45 c0 -5 -5 -10 -11 -10 -5 0 -7 5 -4 10 3
6 8 10 11 10 2 0 4 -4 4 -10z m2898 -7 c-2 -9 -13 -17 -26 -18 -21 -2 -21 -1
-5 17 20 23 35 23 31 1z m-2978 3 c0 -3 -4 -8 -10 -11 -5 -3 -10 -1 -10 4 0 6
5 11 10 11 6 0 10 -2 10 -4z m2915 -66 c3 -5 2 -10 -4 -10 -5 0 -13 5 -16 10
-3 6 -2 10 4 10 5 0 13 -4 16 -10z m20 -50 c3 -5 1 -10 -4 -10 -6 0 -11 5 -11
10 0 6 2 10 4 10 3 0 8 -4 11 -10z m-2867 -84 c-14 -10 -15 -15 -5 -25 9 -10
8 -11 -5 -6 -19 8 -24 -5 -8 -21 6 -6 5 -25 -2 -54 -12 -45 -12 -45 -20 -15
-5 19 -3 32 4 36 6 4 8 12 4 18 -4 6 -4 26 0 46 5 27 11 35 28 35 19 -1 20 -2
4 -14z m2917 -5 c-3 -6 -11 -8 -17 -5 -6 4 -5 9 3 15 16 10 23 4 14 -10z m55
-12 c-7 -11 -14 -19 -16 -16 -7 7 7 37 17 37 6 0 5 -9 -1 -21z m-56 -59 c-18
-7 -18 -7 4 -14 12 -4 22 -14 22 -22 0 -8 5 -12 10 -9 15 9 12 -12 -5 -46 -17
-32 -13 -51 10 -42 8 3 15 0 15 -6 0 -6 -9 -11 -21 -11 -15 0 -19 -5 -15 -15
3 -9 0 -15 -10 -15 -8 0 -13 4 -9 9 3 6 -1 43 -10 84 -17 81 -13 109 13 100
13 -6 13 -7 -4 -13z m-2974 -40 c0 -5 -5 -10 -11 -10 -5 0 -7 5 -4 10 3 6 8
10 11 10 2 0 4 -4 4 -10z m540 -160 c0 -133 -1 -140 -20 -140 -19 0 -20 7 -20
140 0 133 1 140 20 140 19 0 20 -7 20 -140z m230 39 l85 -102 3 102 c3 100 3
101 27 101 l25 0 0 -140 0 -140 -24 0 c-18 0 -42 23 -97 90 -41 49 -77 90 -81
90 -5 0 -8 -40 -8 -90 0 -83 -1 -90 -20 -90 -19 0 -20 7 -20 122 0 99 -3 125
-17 140 -15 17 -15 18 13 18 25 0 42 -15 114 -101z m450 81 c0 -18 -7 -20 -80
-20 l-80 0 0 -39 0 -38 58 1 c51 1 57 -1 57 -19 0 -17 -8 -21 -55 -25 l-55 -5
-3 -57 c-3 -50 -6 -58 -22 -58 -19 0 -20 8 -20 140 l0 140 100 0 c93 0 100 -1
100 -20z m130 -120 c0 -133 -1 -140 -20 -140 -19 0 -20 7 -20 140 0 133 1 140
20 140 19 0 20 -7 20 -140z m230 38 l85 -103 3 103 c3 101 3 102 27 102 l25 0
0 -140 0 -140 -24 0 c-17 0 -42 23 -96 88 -40 48 -77 89 -81 90 -5 2 -9 -37
-9 -87 0 -84 -1 -91 -20 -91 -19 0 -20 7 -20 122 0 99 -3 125 -17 140 -15 17
-15 18 13 18 25 0 42 -15 114 -102z m290 -38 c0 -133 -1 -140 -20 -140 -19 0
-20 7 -20 140 0 133 1 140 20 140 19 0 20 -7 20 -140z m320 120 c0 -17 -7 -20
-50 -20 l-50 0 0 -120 c0 -113 -1 -120 -20 -120 -19 0 -20 7 -20 120 l0 120
-50 0 c-43 0 -50 3 -50 20 0 19 7 20 120 20 113 0 120 -1 120 -20z m129 -34
c16 -30 35 -57 40 -61 11 -6 66 63 76 96 6 19 55 28 55 10 0 -11 -78 -129 -91
-136 -5 -4 -9 -35 -9 -71 0 -57 -2 -64 -20 -64 -18 0 -20 7 -20 55 0 49 -5 62
-39 108 -21 29 -46 67 -55 85 -16 32 -16 32 8 32 19 0 31 -12 55 -54z m-2316
30 c17 -13 18 -21 6 -118 -49 -426 110 -873 430 -1202 40 -42 75 -76 77 -76
13 0 122 -94 118 -102 -3 -5 0 -8 7 -7 17 3 69 -21 69 -32 0 -4 10 -11 23 -15
12 -4 38 -17 57 -29 19 -11 51 -27 70 -35 40 -16 80 -49 80 -67 0 -16 -5 -16
-33 -1 -20 10 -21 10 -9 -5 8 -9 11 -21 7 -27 -4 -7 -14 -1 -26 14 -12 15 -26
23 -34 19 -10 -3 -15 1 -16 13 -1 17 -2 17 -6 2 -2 -10 -11 -18 -19 -18 -8 0
-14 -5 -14 -11 0 -5 -5 -7 -10 -4 -6 4 -8 11 -5 16 4 5 -1 9 -9 9 -9 0 -16 5
-16 11 0 5 -5 7 -10 4 -6 -3 -17 0 -25 9 -19 19 -19 26 0 26 8 0 15 3 15 6 0
9 -24 30 -44 37 -11 4 -16 13 -12 22 4 13 2 13 -14 5 -15 -8 -21 -6 -30 7 -10
15 -11 15 -6 1 3 -10 -2 -18 -14 -21 -14 -4 -17 -1 -13 12 3 9 11 22 16 29 5
7 7 15 4 18 -9 10 -37 -22 -37 -43 -1 -17 -1 -17 -11 0 -5 9 -7 22 -3 29 4 6
3 8 -3 5 -6 -4 -14 5 -17 19 -5 20 -12 25 -26 21 -11 -3 -18 -1 -15 3 8 14
-15 23 -28 11 -10 -7 -13 -5 -14 9 -2 29 -24 47 -50 42 -13 -2 -23 1 -23 7 0
6 4 11 10 11 5 0 7 7 4 15 -5 11 -10 13 -19 5 -16 -13 -30 4 -19 22 5 8 2 9
-10 5 -9 -4 -14 -3 -11 2 3 5 1 12 -5 16 -5 3 -10 -1 -10 -9 0 -9 -4 -16 -10
-16 -14 0 -12 11 5 34 21 28 18 39 -7 25 -18 -10 -20 -9 -14 6 7 19 -11 48
-25 39 -5 -3 -9 0 -9 6 0 7 -7 9 -16 6 -8 -3 -24 3 -36 14 -21 19 -21 20 -3
40 10 11 13 20 8 20 -6 0 -13 9 -16 20 -3 11 -1 20 4 20 5 0 9 4 9 10 0 5 -7
7 -15 4 -8 -4 -15 -2 -15 4 0 5 -9 12 -20 15 -13 3 -18 11 -14 20 3 10 -2 18
-15 22 -12 3 -21 13 -21 21 0 10 -5 12 -12 8 -9 -5 -9 -2 1 9 12 15 11 17 -3
17 -9 0 -16 7 -16 15 0 8 -9 23 -20 32 -11 10 -20 27 -20 38 0 15 -2 17 -9 6
-5 -8 -11 -9 -15 -3 -3 6 -2 13 4 17 6 4 8 11 4 16 -3 5 -10 6 -16 3 -6 -4 -8
-2 -5 3 4 6 -1 25 -9 43 -14 27 -14 34 -3 41 11 6 10 9 -3 14 -9 4 -14 13 -11
21 3 8 1 14 -5 14 -5 0 -12 9 -15 19 -3 14 -1 18 10 14 8 -3 3 7 -11 22 -17
18 -24 35 -20 47 3 10 1 18 -5 18 -6 0 -11 9 -11 20 0 11 -5 29 -11 39 -10 15
-8 22 10 40 15 15 20 29 16 39 -21 50 -23 72 -9 72 18 0 18 9 -3 32 -9 10 -11
18 -5 18 6 0 9 6 6 14 -3 9 4 16 21 20 15 4 25 11 23 17 -2 6 -6 9 -9 7 -3 -2
-13 3 -22 11 -9 7 -24 11 -32 7 -9 -3 -13 -2 -10 4 3 6 12 10 19 10 7 0 11 12
10 32 -2 31 11 66 31 80 6 5 6 8 -1 8 -7 0 -14 6 -17 14 -4 9 2 12 19 10 13
-1 24 2 24 7 0 5 -7 9 -16 9 -13 0 -11 4 6 18 24 19 20 42 -6 42 -8 0 -14 5
-14 10 0 6 10 10 23 10 20 1 20 2 5 11 -18 10 -25 29 -10 29 4 0 15 -7 25 -14z
m3027 -26 c0 -5 -4 -10 -10 -10 -5 0 -10 5 -10 10 0 6 5 10 10 10 6 0 10 -4
10 -10z m-3040 -34 c0 -3 -4 -8 -10 -11 -5 -3 -10 -1 -10 4 0 6 5 11 10 11 6
0 10 -2 10 -4z m3027 -115 c4 -31 9 -39 17 -31 6 6 11 21 11 32 0 12 6 23 13
26 17 5 15 -34 -4 -62 -10 -16 -12 -26 -4 -31 6 -3 8 -11 5 -16 -4 -5 8 -9 24
-9 17 0 31 -5 31 -11 0 -6 -7 -9 -15 -5 -11 4 -15 -1 -15 -19 0 -13 -5 -36
-10 -51 -8 -21 -8 -29 2 -35 7 -5 14 -16 15 -26 6 -55 8 -63 14 -63 8 0 6 -16
-6 -43 -5 -11 -14 -16 -24 -13 -12 5 -11 2 3 -9 24 -18 30 -65 9 -65 -13 0
-13 3 -3 15 17 20 5 32 -13 14 -18 -18 -10 -39 14 -39 10 0 19 -4 19 -10 0 -5
-8 -7 -17 -3 -13 4 -11 1 5 -13 23 -19 23 -19 2 -32 -11 -7 -20 -8 -20 -3 0 5
6 12 13 14 6 3 0 6 -14 6 -15 1 -33 -6 -40 -15 -7 -9 -22 -20 -34 -24 -16 -7
-16 -9 -3 -9 9 -1 23 6 32 14 8 8 19 15 25 15 17 0 13 -40 -4 -46 -8 -4 -15
-10 -15 -15 0 -4 6 -6 14 -3 7 3 16 -1 19 -9 5 -14 -19 -17 -40 -4 -6 4 -14 3
-18 -3 -4 -6 -11 -8 -16 -5 -5 4 -9 2 -9 -4 0 -5 6 -11 13 -14 9 -4 9 -7 -1
-18 -11 -12 -14 -12 -22 1 -7 11 -10 12 -10 2 0 -9 -10 -12 -27 -10 -24 3 -28
8 -29 38 -1 47 11 86 25 82 8 -1 9 2 4 10 -9 16 -5 48 9 65 6 7 8 19 5 27 -3
8 -3 17 0 20 8 8 12 39 19 161 3 55 10 105 16 112 5 7 6 18 2 24 -4 8 -3 9 4
5 7 -4 12 -2 12 3 0 6 -5 11 -11 11 -6 0 -9 19 -8 48 1 26 -1 53 -5 60 -4 7
-4 17 0 23 11 19 35 -15 41 -60z m93 15 c0 -3 -4 -8 -10 -11 -5 -3 -10 -1 -10
4 0 6 5 11 10 11 6 0 10 -2 10 -4z m-2203 -333 c3 -8 -1 -22 -10 -30 -14 -14
-14 -18 0 -39 8 -13 11 -24 6 -24 -5 0 -16 11 -23 25 -7 14 -17 25 -22 25 -4
0 -8 -11 -8 -25 0 -14 -4 -25 -9 -25 -13 0 -12 103 1 111 15 10 59 -2 65 -18z
m161 11 c33 -23 27 -83 -10 -103 -25 -14 -29 -14 -55 5 -39 29 -41 66 -7 93
32 25 42 26 72 5z m502 1 c10 -12 6 -13 -24 -8 -31 5 -37 2 -45 -18 -15 -41 1
-64 43 -63 37 1 48 -9 20 -20 -27 -10 -43 -7 -64 14 -26 26 -25 64 2 90 26 24
51 26 68 5z m143 -3 c-20 -3 -23 -9 -23 -53 0 -27 -4 -49 -10 -49 -5 0 -10 23
-10 50 0 40 -3 50 -17 51 -10 1 0 5 22 8 22 4 45 4 50 1 6 -3 0 -6 -12 -8z
m255 2 c44 -30 18 -114 -36 -114 -18 0 -62 46 -62 65 0 19 44 65 62 65 8 0 24
-7 36 -16z m316 10 c25 -10 19 -22 -9 -16 -34 6 -34 -25 -1 -38 29 -11 38 -23
30 -44 -9 -24 -44 -30 -62 -12 -15 15 -14 16 16 10 25 -5 32 -3 32 9 0 9 -12
22 -27 29 -33 16 -38 31 -18 52 19 18 18 18 39 10z m-1524 -19 c16 -19 -3 -45
-31 -45 -14 0 -19 -7 -19 -25 0 -14 -4 -25 -10 -25 -5 0 -10 25 -10 55 0 54 1
55 29 55 16 0 34 -7 41 -15z m482 -2 c38 -34 12 -88 -47 -95 -30 -3 -30 -3
-33 55 l-3 57 32 0 c18 0 41 -7 51 -17z m128 -78 c23 0 26 5 31 50 l6 50 1
-52 c2 -43 -2 -54 -18 -63 -14 -8 -26 -8 -40 0 -16 9 -20 20 -18 63 l1 52 6
-50 c5 -45 8 -50 31 -50z m440 40 c0 -30 -4 -55 -10 -55 -5 0 -10 25 -10 55 0
30 5 55 10 55 6 0 10 -25 10 -55z m305 7 l30 -47 6 50 6 50 1 -57 c1 -33 -2
-58 -8 -58 -5 0 -22 19 -37 42 l-28 42 -3 -42 c-5 -62 -22 -51 -22 13 0 69 15
71 55 7z m-2230 -2 c3 -5 1 -10 -4 -10 -6 0 -11 5 -11 10 0 6 2 10 4 10 3 0 8
-4 11 -10z m3225 -10 c0 -5 -5 -10 -11 -10 -5 0 -7 5 -4 10 3 6 8 10 11 10 2
0 4 -4 4 -10z m9 -173 c0 -8 -2 -8 -6 1 -4 10 -8 10 -19 1 -9 -7 -14 -8 -14
-1 0 12 21 22 33 15 4 -2 7 -10 6 -16z m-119 -117 c0 -5 -4 -10 -10 -10 -5 0
-10 5 -10 10 0 6 5 10 10 10 6 0 10 -4 10 -10z m-74 -25 c0 -14 -4 -25 -8 -25
-4 0 -5 -6 -2 -14 3 -9 -5 -21 -20 -31 -15 -10 -23 -22 -19 -31 4 -10 -5 -19
-25 -26 -18 -7 -33 -21 -37 -35 -3 -13 -10 -23 -16 -23 -14 0 -1 42 17 56 8 6
12 19 8 28 -3 9 -1 16 5 16 6 0 11 6 11 13 0 7 7 23 16 35 12 17 19 20 29 12
15 -12 30 3 20 20 -7 11 2 30 15 30 4 0 7 -11 6 -25z m-2888 -100 c-3 -3 -9 2
-12 12 -6 14 -5 15 5 6 7 -7 10 -15 7 -18z m2907 -15 c3 -5 1 -10 -4 -10 -6 0
-11 5 -11 10 0 6 2 10 4 10 3 0 8 -4 11 -10z m-65 -60 c0 -5 -4 -10 -10 -10
-5 0 -10 5 -10 10 0 6 5 10 10 10 6 0 10 -4 10 -10z m-77 -65 c-3 -9 -8 -14
-10 -11 -3 3 -2 9 2 15 9 16 15 13 8 -4z m92 -25 c3 -5 1 -10 -4 -10 -6 0 -11
5 -11 10 0 6 2 10 4 10 3 0 8 -4 11 -10z m-179 -57 c-10 -10 -19 5 -10 18 6
11 8 11 12 0 2 -7 1 -15 -2 -18z m79 17 c3 -5 1 -10 -4 -10 -6 0 -11 5 -11 10
0 6 2 10 4 10 3 0 8 -4 11 -10z m-74 -52 c5 1 9 -1 9 -4 0 -10 -28 -34 -39
-34 -6 0 -11 -5 -11 -11 0 -6 7 -9 15 -5 18 7 18 4 3 -29 l-12 -26 -13 23 -12
23 -1 -23 c0 -13 -4 -20 -10 -17 -6 4 -7 12 -3 18 4 7 0 6 -10 -2 -19 -15 -23
-41 -6 -41 5 0 7 5 3 12 -4 7 -3 8 4 4 9 -5 8 -15 -4 -37 -8 -17 -13 -33 -10
-37 3 -3 6 0 6 6 0 15 36 16 45 2 3 -5 -1 -10 -11 -10 -11 0 -15 -6 -11 -19 4
-17 1 -18 -17 -11 -13 5 -29 4 -40 -2 -13 -7 -21 -5 -31 8 -11 15 -15 16 -29
5 -9 -7 -16 -18 -16 -24 0 -5 9 -2 20 8 11 10 20 13 20 7 0 -7 -4 -12 -10 -12
-5 0 -10 -10 -10 -22 0 -20 -1 -21 -20 -3 -17 16 -20 16 -25 2 -4 -8 -7 -29
-9 -46 -2 -32 -16 -56 -16 -28 0 20 -15 22 -32 4 -7 -8 -20 -12 -30 -9 -13 3
-17 0 -13 -11 4 -8 0 -17 -9 -20 -8 -3 -17 1 -20 10 -8 19 23 44 47 39 9 -2
17 0 17 5 0 5 -13 9 -29 9 -17 0 -33 5 -37 12 -4 6 -3 8 4 4 6 -3 13 2 17 12
3 11 43 53 89 95 78 71 83 74 97 56 21 -29 32 -23 12 8 -17 26 -17 27 1 20 17
-7 17 -6 5 9 -12 15 -11 16 9 10 19 -6 22 -4 22 18 0 13 7 31 15 40 8 8 15 18
15 23 0 5 6 15 13 22 10 10 16 7 31 -11 10 -13 23 -22 27 -20z m189 22 c0 -5
-5 -10 -11 -10 -5 0 -7 5 -4 10 3 6 8 10 11 10 2 0 4 -4 4 -10z m-140 -54 c0
-14 -6 -31 -13 -38 -7 -7 -17 -23 -22 -35 -7 -15 -14 -20 -23 -14 -15 9 0 61
18 61 6 0 15 11 20 25 12 32 20 32 20 1z m40 -30 c0 -3 -4 -8 -10 -11 -5 -3
-10 -1 -10 4 0 6 5 11 10 11 6 0 10 -2 10 -4z m-111 -65 c7 -5 9 -11 5 -14 -5
-3 -15 1 -22 9 -14 16 -5 18 17 5z m21 -35 c0 -3 -4 -8 -10 -11 -5 -3 -10 -1
-10 4 0 6 5 11 10 11 6 0 10 -2 10 -4z m-2286 -92 c4 -10 1 -14 -6 -12 -15 5
-23 28 -10 28 5 0 13 -7 16 -16z m2086 -25 c0 -5 -4 -9 -10 -9 -5 0 -10 7 -10
16 0 8 5 12 10 9 6 -3 10 -10 10 -16z m47 -2 c-3 -7 4 -19 15 -26 11 -7 18
-15 15 -18 -9 -9 -50 35 -42 46 9 15 18 14 12 -2z m-2077 -7 c0 -5 -4 -10 -10
-10 -5 0 -10 5 -10 10 0 6 5 10 10 10 6 0 10 -4 10 -10z m31 -17 c-8 -15 -10
-15 -11 -2 0 17 10 32 18 25 2 -3 -1 -13 -7 -23z m1809 -28 c0 6 5 3 10 -7 11
-18 3 -51 -10 -43 -5 3 -9 -9 -9 -27 -2 -88 -16 -134 -28 -90 -5 22 -6 22 -27
5 -18 -16 -19 -16 -7 -1 11 15 11 20 -3 33 -16 16 -11 49 6 39 6 -4 5 -10 -3
-15 -11 -7 -10 -9 4 -9 10 0 15 -4 12 -10 -3 -5 -2 -10 4 -10 6 0 15 8 20 18
13 24 -4 42 -36 42 -13 0 -23 6 -23 12 0 7 -8 -3 -19 -22 -10 -19 -16 -39 -13
-44 3 -5 0 -6 -6 -2 -6 3 -13 2 -16 -3 -3 -5 -15 -7 -25 -4 -13 3 -21 -2 -26
-16 -3 -12 -13 -21 -20 -21 -17 0 -28 17 -16 24 5 4 11 0 14 -6 3 -9 8 -6 13
7 4 11 12 23 18 27 7 5 4 13 -9 23 -16 12 -16 14 -3 9 21 -7 46 16 40 36 -4
11 1 10 17 -4 11 -11 21 -14 21 -8 0 7 -4 12 -10 12 -5 0 -10 5 -10 11 0 6 6
9 14 6 8 -3 17 1 20 8 3 8 12 12 21 9 9 -4 15 -1 15 7 0 11 3 11 10 -1 9 -14
11 -13 14 10 0 6 8 15 16 20 11 7 17 4 22 -8 4 -9 7 -12 8 -7z m90 -30 c0 -8
-7 -15 -16 -15 -14 0 -14 3 -4 15 7 8 14 15 16 15 2 0 4 -7 4 -15z m-1742 -26
c2 -9 -7 -14 -25 -15 -16 -1 -22 1 -15 3 6 3 12 11 12 20 0 18 24 12 28 -8z
m1737 -17 c-3 -3 -11 0 -18 7 -9 10 -8 11 6 5 10 -3 15 -9 12 -12z m-316 -31
c11 -7 10 -13 -4 -34 -9 -15 -14 -31 -10 -37 3 -5 0 -19 -8 -31 -15 -20 -15
-20 -33 10 -10 17 -24 31 -31 31 -17 0 -17 -17 0 -23 6 -3 2 -6 -10 -6 -13 -1
-23 5 -23 12 -1 7 -6 5 -14 -5 -12 -17 -14 -17 -30 1 -11 12 -14 21 -7 26 6 3
11 -1 11 -9 0 -21 13 -20 26 2 12 18 49 22 72 8 17 -10 15 4 -4 25 -15 17 -15
18 14 7 36 -14 51 -6 32 17 -14 16 -3 20 19 6z m141 -44 c0 -5 -4 -5 -10 -2
-5 3 -10 14 -10 23 0 15 2 15 10 2 5 -8 10 -19 10 -23z m-1197 4 c13 -5 34
-27 47 -48 19 -33 20 -36 3 -20 -11 9 -23 14 -26 10 -4 -3 -7 3 -7 15 0 27 -8
28 -27 5 -13 -17 -14 -16 -10 5 3 12 2 20 -2 17 -5 -2 -17 2 -27 10 -18 14
-18 14 3 15 12 0 33 -4 46 -9z m-313 -10 c0 -5 -6 -11 -13 -14 -8 -3 -14 1
-14 9 0 8 6 14 14 14 7 0 13 -4 13 -9z m139 -15 c9 -10 8 -15 -4 -20 -10 -4
-15 1 -15 14 0 24 4 25 19 6z m1038 -25 c0 -22 -4 -27 -19 -23 -10 2 -18 -1
-18 -7 0 -7 -5 -9 -11 -6 -7 5 -5 13 5 24 9 10 16 23 16 29 0 7 6 12 13 12 8
0 14 -11 14 -29z m-971 -8 c-10 -10 -19 5 -10 18 6 11 8 11 12 0 2 -7 1 -15
-2 -18z m64 17 c0 -5 -2 -10 -4 -10 -3 0 -8 5 -11 10 -3 6 -1 10 4 10 6 0 11
-4 11 -10z m807 -40 c-12 -14 -15 -19 -7 -12 22 19 35 14 16 -7 -13 -15 -14
-20 -4 -24 9 -3 8 -7 -5 -12 -11 -5 -25 -1 -39 11 -12 11 -18 13 -14 7 4 -7 3
-13 -1 -13 -5 0 -15 6 -23 13 -12 10 -12 9 -2 -4 10 -14 10 -18 -4 -23 -8 -3
-23 -6 -32 -6 -24 0 -52 -30 -52 -56 0 -28 -18 -41 -26 -20 -3 9 -10 16 -16
16 -5 0 -6 -5 -2 -12 4 -7 3 -8 -4 -4 -7 4 -12 16 -12 27 0 11 -4 18 -9 15 -5
-3 -7 -14 -4 -25 3 -10 -2 -21 -10 -24 -11 -4 -13 0 -10 13 4 13 -4 23 -27 35
-25 13 -30 19 -19 26 20 12 29 11 29 -4 0 -8 7 -14 14 -14 19 0 4 32 -20 41
-14 5 -13 9 7 26 13 11 18 19 12 20 -7 0 -13 -4 -13 -10 0 -5 -3 -9 -7 -9 -25
4 -35 -3 -29 -18 5 -15 4 -15 -9 1 -8 11 -15 15 -15 9 0 -6 -3 -19 -7 -29 -4
-11 -2 -15 4 -11 6 4 8 -3 5 -20 -4 -21 -7 -24 -16 -12 -9 12 -30 24 -80 47
-5 3 -5 -1 -1 -8 6 -9 3 -9 -14 -1 l-21 12 27 34 c23 29 35 35 66 35 41 0 45
-6 20 -27 -21 -17 4 -6 26 11 8 6 28 12 45 13 121 9 226 21 261 31 40 12 50
-6 22 -38z m-489 9 c3 -6 9 -6 18 2 7 6 21 8 30 5 26 -10 -3 -39 -32 -32 -16
4 -26 0 -34 -11 -8 -14 -10 -14 -8 -3 3 15 -2 20 -23 20 -5 0 -7 -4 -4 -10 3
-6 -1 -7 -10 -3 -12 4 -13 8 -5 13 20 12 -5 21 -46 15 -34 -4 -36 -3 -18 11
21 16 126 11 132 -7z m-345 -4 c4 -8 2 -17 -3 -20 -6 -4 -10 3 -10 14 0 25 6
27 13 6z m960 -18 c-18 -11 -25 -5 -17 16 4 13 9 14 19 4 11 -10 10 -14 -2
-20z m167 23 c0 -5 -2 -10 -4 -10 -3 0 -8 5 -11 10 -3 6 -1 10 4 10 6 0 11 -4
11 -10z m-1265 -20 c3 -5 1 -10 -4 -10 -6 0 -11 5 -11 10 0 6 2 10 4 10 3 0 8
-4 11 -10z m1060 -10 c3 -5 1 -10 -4 -10 -6 0 -11 5 -11 10 0 6 2 10 4 10 3 0
8 -4 11 -10z m240 0 c3 -6 -1 -7 -9 -4 -18 7 -21 14 -7 14 6 0 13 -4 16 -10z
m-963 -57 c-6 -10 -9 -2 -10 24 0 33 1 35 9 15 5 -13 5 -30 1 -39z m163 37
c-3 -5 -11 -10 -16 -10 -6 0 -7 5 -4 10 3 6 11 10 16 10 6 0 7 -4 4 -10z m-60
-20 c-3 -5 -12 -10 -18 -10 -7 0 -6 4 3 10 19 12 23 12 15 0z m485 -10 c0 -5
-5 -10 -11 -10 -5 0 -7 5 -4 10 3 6 8 10 11 10 2 0 4 -4 4 -10z m-730 -15 c7
-9 8 -15 2 -15 -5 0 -12 7 -16 15 -3 8 -4 15 -2 15 2 0 9 -7 16 -15z m380 -16
c0 -5 5 -7 10 -4 6 3 10 1 10 -4 0 -13 -3 -13 -24 -5 -18 7 -22 24 -6 24 6 0
10 -5 10 -11z m100 -19 c0 -5 -2 -10 -4 -10 -3 0 -8 5 -11 10 -3 6 -1 10 4 10
6 0 11 -4 11 -10z"/>
<path d="M3521 4374 c0 -11 3 -14 6 -6 3 7 2 16 -1 19 -3 4 -6 -2 -5 -13z"/>
<path d="M5041 3857 c2 -1 13 -9 24 -17 19 -14 19 -14 6 3 -7 9 -18 17 -24 17
-6 0 -8 -1 -6 -3z"/>
<path d="M5110 3774 c0 -8 5 -12 10 -9 6 3 10 10 10 16 0 5 -4 9 -10 9 -5 0
-10 -7 -10 -16z"/>
<path d="M5325 3210 c3 -5 8 -10 11 -10 2 0 4 5 4 10 0 6 -5 10 -11 10 -5 0
-7 -4 -4 -10z"/>
<path d="M2325 2950 c3 -5 8 -10 11 -10 2 0 4 5 4 10 0 6 -5 10 -11 10 -5 0
-7 -4 -4 -10z"/>
<path d="M2315 2700 c3 -5 8 -10 11 -10 2 0 4 5 4 10 0 6 -5 10 -11 10 -5 0
-7 -4 -4 -10z"/>
<path d="M2590 1940 c0 -5 5 -10 10 -10 6 0 10 5 10 10 0 6 -4 10 -10 10 -5 0
-10 -4 -10 -10z"/>
<path d="M3170 1520 c0 -5 5 -10 11 -10 5 0 7 5 4 10 -3 6 -8 10 -11 10 -2 0
-4 -4 -4 -10z"/>
<path d="M5295 2420 c3 -5 8 -10 11 -10 2 0 4 5 4 10 0 6 -5 10 -11 10 -5 0
-7 -4 -4 -10z"/>
<path d="M5280 2378 c0 -4 4 -8 9 -8 6 0 12 4 15 8 3 5 -1 9 -9 9 -8 0 -15 -4
-15 -9z"/>
<path d="M3210 2649 c0 -14 5 -19 17 -17 26 5 29 38 4 38 -15 0 -21 -6 -21
-21z"/>
<path d="M3354 2643 c-9 -34 6 -57 39 -61 20 -3 30 3 38 21 16 36 -3 67 -41
67 -24 0 -31 -5 -36 -27z"/>
<path d="M4262 2658 c-7 -7 -12 -21 -12 -33 0 -12 5 -26 12 -33 7 -7 21 -12
33 -12 12 0 26 5 33 12 7 7 12 21 12 33 0 12 -5 26 -12 33 -7 7 -21 12 -33 12
-12 0 -26 -5 -33 -12z"/>
<path d="M3070 2649 c0 -14 5 -19 17 -17 26 5 29 38 4 38 -15 0 -21 -6 -21
-21z"/>
<path d="M3530 2625 c0 -41 2 -45 24 -45 27 0 56 24 56 45 0 21 -29 45 -56 45
-22 0 -24 -4 -24 -45z"/>
<path d="M4940 1739 c0 -5 5 -7 10 -4 6 3 10 8 10 11 0 2 -4 4 -10 4 -5 0 -10
-5 -10 -11z"/>
<path d="M4780 1709 c0 -5 5 -7 10 -4 6 3 10 8 10 11 0 2 -4 4 -10 4 -5 0 -10
-5 -10 -11z"/>
<path d="M4675 1590 c-3 -6 1 -7 9 -4 18 7 21 14 7 14 -6 0 -13 -4 -16 -10z"/>
<path d="M4530 1499 c0 -5 5 -7 10 -4 6 3 10 8 10 11 0 2 -4 4 -10 4 -5 0 -10
-5 -10 -11z"/>
<path d="M3770 1361 c0 -10 19 -25 25 -20 1 2 -3 10 -11 17 -8 7 -14 8 -14 3z"/>
<path d="M3924 1323 c2 -9 8 -19 14 -21 6 -2 8 5 5 17 -6 25 -22 28 -19 4z"/>
</g>
</svg>
